STARTFONT 2.1
FONT -Fondu-Geneva-Medium-R-Normal--20-190-75-75-P-120-MacRoman-1
SIZE 19 75 75
FONTBOUNDINGBOX 24 24 0 -4
COMMENT Created by Fondu from a mac NFNT/FONT resource
STARTPROPERTIES 17
FOUNDRY "Fondu"
FAMILY_NAME "Geneva"
WEIGHT_NAME "Medium"
SLANT "R"
SETWIDTH_NAME "Normal"
ADD_STYLE_NAME ""
PIXEL_SIZE 20
POINT_SIZE 190
RESOLUTION_X 75
RESOLUTION_Y 75
SPACING "P"
AVERAGE_WIDTH 120
CHARSET_REGISTRY "MacRoman"
CHARSET_ENCODING "1"
FONT_ASCENT 20
FONT_DESCENT 4
FACE_NAME "Geneva"
ENDPROPERTIES
CHARS 190
STARTCHAR eth
ENCODING 2
SWIDTH 0 0
DWIDTH 0 0
BBX 0 0 0 -4
BITMAP
ENDCHAR
STARTCHAR Lslash
ENCODING 3
SWIDTH 0 0
DWIDTH 0 0
BBX 0 0 0 -4
BITMAP
ENDCHAR
STARTCHAR lslash
ENCODING 4
SWIDTH 0 0
DWIDTH 0 0
BBX 0 0 0 -4
BITMAP
ENDCHAR
STARTCHAR Scaron
ENCODING 5
SWIDTH 0 0
DWIDTH 0 0
BBX 0 0 0 -4
BITMAP
ENDCHAR
STARTCHAR space
ENCODING 32
SWIDTH 300 0
DWIDTH 6 0
BBX 0 0 6 -4
BITMAP
ENDCHAR
STARTCHAR exclam
ENCODING 33
SWIDTH 400 0
DWIDTH 8 0
BBX 1 16 4 0
BITMAP
80
80
80
80
80
80
80
80
80
80
80
80
00
00
80
80
ENDCHAR
STARTCHAR quotedbl
ENCODING 34
SWIDTH 500 0
DWIDTH 10 0
BBX 5 4 3 12
BITMAP
88
88
88
88
ENDCHAR
STARTCHAR numbersign
ENCODING 35
SWIDTH 900 0
DWIDTH 18 0
BBX 15 10 1 6
BITMAP
0210
0210
3FFE
0420
0420
0840
0840
FFF8
1080
1080
ENDCHAR
STARTCHAR dollar
ENCODING 36
SWIDTH 700 0
DWIDTH 14 0
BBX 9 20 2 -2
BITMAP
0800
0800
3E00
4900
8880
8880
8800
4800
2800
1800
0C00
0A00
0900
0880
8880
8880
4900
3E00
0800
0800
ENDCHAR
STARTCHAR percent
ENCODING 37
SWIDTH 900 0
DWIDTH 18 0
BBX 12 16 3 0
BITMAP
3BE0
4410
8210
8220
8240
4480
3900
0200
0400
09C0
1220
2410
4410
4410
8220
81C0
ENDCHAR
STARTCHAR ampersand
ENCODING 38
SWIDTH 800 0
DWIDTH 16 0
BBX 14 16 1 0
BITMAP
0C00
1200
2100
2100
2200
1400
0800
1400
2208
4110
80A0
8040
80A0
8110
4208
3C04
ENDCHAR
STARTCHAR quotesingle
ENCODING 39
SWIDTH 300 0
DWIDTH 6 0
BBX 1 4 2 12
BITMAP
80
80
80
80
ENDCHAR
STARTCHAR parenleft
ENCODING 40
SWIDTH 600 0
DWIDTH 12 0
BBX 5 20 2 -2
BITMAP
08
10
20
20
40
40
80
80
80
80
80
80
80
80
40
40
20
20
10
08
ENDCHAR
STARTCHAR parenright
ENCODING 41
SWIDTH 500 0
DWIDTH 10 0
BBX 5 20 3 -2
BITMAP
80
40
20
20
10
10
08
08
08
08
08
08
08
08
10
10
20
20
40
80
ENDCHAR
STARTCHAR asterisk
ENCODING 42
SWIDTH 700 0
DWIDTH 14 0
BBX 11 9 1 7
BITMAP
2080
1100
0A00
0400
FFE0
0400
0A00
1100
2080
ENDCHAR
STARTCHAR plus
ENCODING 43
SWIDTH 800 0
DWIDTH 16 0
BBX 9 9 3 3
BITMAP
0800
0800
0800
0800
FF80
0800
0800
0800
0800
ENDCHAR
STARTCHAR comma
ENCODING 44
SWIDTH 400 0
DWIDTH 8 0
BBX 2 5 4 -3
BITMAP
C0
40
40
40
80
ENDCHAR
STARTCHAR hyphen
ENCODING 45
SWIDTH 700 0
DWIDTH 14 0
BBX 9 1 2 7
BITMAP
FF80
ENDCHAR
STARTCHAR period
ENCODING 46
SWIDTH 300 0
DWIDTH 6 0
BBX 1 2 2 0
BITMAP
80
80
ENDCHAR
STARTCHAR slash
ENCODING 47
SWIDTH 600 0
DWIDTH 12 0
BBX 8 16 2 0
BITMAP
01
01
02
02
04
04
08
08
10
10
20
20
40
40
80
80
ENDCHAR
STARTCHAR zero
ENCODING 48
SWIDTH 700 0
DWIDTH 14 0
BBX 10 16 2 0
BITMAP
1E00
2100
4080
4080
8040
8040
8040
8040
8040
8040
8040
8040
4080
4080
2100
1E00
ENDCHAR
STARTCHAR one
ENCODING 49
SWIDTH 700 0
DWIDTH 14 0
BBX 3 16 5 0
BITMAP
20
60
A0
20
20
20
20
20
20
20
20
20
20
20
20
20
ENDCHAR
STARTCHAR two
ENCODING 50
SWIDTH 700 0
DWIDTH 14 0
BBX 10 16 2 0
BITMAP
3F00
4080
8040
8040
0040
0040
0080
0100
0200
0400
0800
1000
2000
4000
8000
FFC0
ENDCHAR
STARTCHAR three
ENCODING 51
SWIDTH 700 0
DWIDTH 14 0
BBX 10 16 2 0
BITMAP
FFC0
0080
0100
0200
0400
0800
1E00
0100
0080
0040
0040
0040
8040
8080
4100
3E00
ENDCHAR
STARTCHAR four
ENCODING 52
SWIDTH 700 0
DWIDTH 14 0
BBX 11 16 2 0
BITMAP
0080
0180
0280
0480
0880
1080
2080
4080
8080
FFE0
0080
0080
0080
0080
0080
0080
ENDCHAR
STARTCHAR five
ENCODING 53
SWIDTH 700 0
DWIDTH 14 0
BBX 10 16 2 0
BITMAP
FFC0
8000
8000
8000
8000
8000
FE00
0100
0080
0040
0040
8040
8040
4080
2100
1E00
ENDCHAR
STARTCHAR six
ENCODING 54
SWIDTH 700 0
DWIDTH 14 0
BBX 10 16 2 0
BITMAP
0700
1800
2000
4000
4000
8000
9E00
A100
C080
8040
8040
8040
8040
4080
2100
1E00
ENDCHAR
STARTCHAR seven
ENCODING 55
SWIDTH 700 0
DWIDTH 14 0
BBX 10 16 2 0
BITMAP
FFC0
0040
0040
0080
0080
0100
0100
0200
0200
0400
0400
0800
0800
0800
0800
0800
ENDCHAR
STARTCHAR eight
ENCODING 56
SWIDTH 700 0
DWIDTH 14 0
BBX 10 16 2 0
BITMAP
1E00
2100
4080
4080
4080
2100
1E00
2100
4080
8040
8040
8040
8040
4080
2100
1E00
ENDCHAR
STARTCHAR nine
ENCODING 57
SWIDTH 700 0
DWIDTH 14 0
BBX 10 16 2 0
BITMAP
1E00
2100
4080
8040
8040
8040
8040
40C0
2140
1E40
0040
0080
0080
0100
0600
3800
ENDCHAR
STARTCHAR colon
ENCODING 58
SWIDTH 300 0
DWIDTH 6 0
BBX 1 10 2 0
BITMAP
80
80
00
00
00
00
00
00
80
80
ENDCHAR
STARTCHAR semicolon
ENCODING 59
SWIDTH 400 0
DWIDTH 8 0
BBX 2 13 4 -3
BITMAP
40
40
00
00
00
00
00
00
C0
40
40
40
80
ENDCHAR
STARTCHAR less
ENCODING 60
SWIDTH 500 0
DWIDTH 10 0
BBX 6 11 2 2
BITMAP
04
08
10
20
40
80
40
20
10
08
04
ENDCHAR
STARTCHAR equal
ENCODING 61
SWIDTH 700 0
DWIDTH 14 0
BBX 10 5 2 5
BITMAP
FFC0
0000
0000
0000
FFC0
ENDCHAR
STARTCHAR greater
ENCODING 62
SWIDTH 500 0
DWIDTH 10 0
BBX 6 11 2 2
BITMAP
80
40
20
10
08
04
08
10
20
40
80
ENDCHAR
STARTCHAR question
ENCODING 63
SWIDTH 700 0
DWIDTH 14 0
BBX 10 16 2 0
BITMAP
1E00
2100
4080
8040
8040
0040
0080
0100
0200
0400
0800
0800
0000
0000
0800
0800
ENDCHAR
STARTCHAR at
ENCODING 64
SWIDTH 900 0
DWIDTH 18 0
BBX 14 14 2 0
BITMAP
0780
1860
2010
4008
43C8
8444
8844
8844
88C4
4738
4000
2000
1800
07C0
ENDCHAR
STARTCHAR A
ENCODING 65
SWIDTH 600 0
DWIDTH 12 0
BBX 11 16 0 0
BITMAP
0400
0400
0A00
0A00
1100
1100
1100
2080
2080
3F80
4040
4040
4040
8020
8020
8020
ENDCHAR
STARTCHAR B
ENCODING 66
SWIDTH 700 0
DWIDTH 14 0
BBX 9 16 2 0
BITMAP
FC00
8200
8100
8100
8100
8200
FC00
8200
8100
8080
8080
8080
8080
8100
8200
FC00
ENDCHAR
STARTCHAR C
ENCODING 67
SWIDTH 600 0
DWIDTH 12 0
BBX 10 16 1 0
BITMAP
1E00
2100
4080
4040
8040
8000
8000
8000
8000
8000
8000
8040
4040
4080
2100
1E00
ENDCHAR
STARTCHAR D
ENCODING 68
SWIDTH 700 0
DWIDTH 14 0
BBX 10 16 2 0
BITMAP
F800
8600
8100
8080
8080
8040
8040
8040
8040
8040
8040
8080
8080
8100
8600
F800
ENDCHAR
STARTCHAR E
ENCODING 69
SWIDTH 600 0
DWIDTH 12 0
BBX 8 16 2 0
BITMAP
FF
80
80
80
80
80
80
FC
80
80
80
80
80
80
80
FF
ENDCHAR
STARTCHAR F
ENCODING 70
SWIDTH 600 0
DWIDTH 12 0
BBX 8 16 2 0
BITMAP
FF
80
80
80
80
80
80
FC
80
80
80
80
80
80
80
80
ENDCHAR
STARTCHAR G
ENCODING 71
SWIDTH 600 0
DWIDTH 12 0
BBX 10 16 1 0
BITMAP
1E00
2100
4080
4040
8040
8000
8000
87C0
8040
8040
8040
8040
4080
4080
2100
1E00
ENDCHAR
STARTCHAR H
ENCODING 72
SWIDTH 700 0
DWIDTH 14 0
BBX 10 16 2 0
BITMAP
8040
8040
8040
8040
8040
8040
8040
FFC0
8040
8040
8040
8040
8040
8040
8040
8040
ENDCHAR
STARTCHAR I
ENCODING 73
SWIDTH 400 0
DWIDTH 8 0
BBX 1 16 3 0
BITMAP
80
80
80
80
80
80
80
80
80
80
80
80
80
80
80
80
ENDCHAR
STARTCHAR J
ENCODING 74
SWIDTH 600 0
DWIDTH 12 0
BBX 10 16 0 0
BITMAP
0040
0040
0040
0040
0040
0040
0040
0040
0040
8040
8040
8040
4080
4080
2100
1E00
ENDCHAR
STARTCHAR K
ENCODING 75
SWIDTH 700 0
DWIDTH 14 0
BBX 10 16 2 0
BITMAP
8080
8100
8200
8400
8800
9000
A000
C000
A000
9000
8800
8400
8200
8100
8080
8040
ENDCHAR
STARTCHAR L
ENCODING 76
SWIDTH 600 0
DWIDTH 12 0
BBX 8 16 2 0
BITMAP
80
80
80
80
80
80
80
80
80
80
80
80
80
80
80
FF
ENDCHAR
STARTCHAR M
ENCODING 77
SWIDTH 900 0
DWIDTH 18 0
BBX 13 16 2 0
BITMAP
8008
C018
A028
9048
8888
8508
8208
8008
8008
8008
8008
8008
8008
8008
8008
8008
ENDCHAR
STARTCHAR N
ENCODING 78
SWIDTH 700 0
DWIDTH 14 0
BBX 10 16 2 0
BITMAP
8040
8040
C040
C040
A040
9040
9040
8840
8440
8440
8240
8140
8140
80C0
8040
8040
ENDCHAR
STARTCHAR O
ENCODING 79
SWIDTH 600 0
DWIDTH 12 0
BBX 10 16 1 0
BITMAP
1E00
2100
4080
4080
8040
8040
8040
8040
8040
8040
8040
8040
4080
4080
2100
1E00
ENDCHAR
STARTCHAR P
ENCODING 80
SWIDTH 700 0
DWIDTH 14 0
BBX 9 16 2 0
BITMAP
FC00
8200
8100
8080
8080
8080
8080
8100
8200
FC00
8000
8000
8000
8000
8000
8000
ENDCHAR
STARTCHAR Q
ENCODING 81
SWIDTH 600 0
DWIDTH 12 0
BBX 10 17 1 -1
BITMAP
1E00
2100
4080
4080
8040
8040
8040
8040
8040
8040
8040
8040
4480
4280
2100
1E80
0040
ENDCHAR
STARTCHAR R
ENCODING 82
SWIDTH 700 0
DWIDTH 14 0
BBX 10 16 2 0
BITMAP
FC00
8200
8100
8080
8080
8080
8080
8100
8200
FC00
8200
8100
8100
8080
8040
8040
ENDCHAR
STARTCHAR S
ENCODING 83
SWIDTH 600 0
DWIDTH 12 0
BBX 10 16 1 0
BITMAP
1E00
2100
4080
4000
4000
2000
1C00
0300
0080
0040
0040
8040
8040
4080
2100
1E00
ENDCHAR
STARTCHAR T
ENCODING 84
SWIDTH 600 0
DWIDTH 12 0
BBX 9 16 1 0
BITMAP
FF80
0800
0800
0800
0800
0800
0800
0800
0800
0800
0800
0800
0800
0800
0800
0800
ENDCHAR
STARTCHAR U
ENCODING 85
SWIDTH 700 0
DWIDTH 14 0
BBX 10 16 2 0
BITMAP
8040
8040
8040
8040
8040
8040
8040
8040
8040
8040
8040
8040
4080
4080
2100
1E00
ENDCHAR
STARTCHAR V
ENCODING 86
SWIDTH 600 0
DWIDTH 12 0
BBX 9 16 1 0
BITMAP
8080
8080
8080
4100
4100
4100
2200
2200
2200
1400
1400
1400
0800
0800
0800
0800
ENDCHAR
STARTCHAR W
ENCODING 87
SWIDTH 1000 0
DWIDTH 20 0
BBX 17 16 1 0
BITMAP
808080
808080
808080
414100
414100
414100
222200
222200
222200
141400
141400
141400
080800
080800
080800
080800
ENDCHAR
STARTCHAR X
ENCODING 88
SWIDTH 600 0
DWIDTH 12 0
BBX 9 16 1 0
BITMAP
8080
8080
4100
4100
2200
1400
1400
0800
0800
1400
1400
2200
4100
4100
8080
8080
ENDCHAR
STARTCHAR Y
ENCODING 89
SWIDTH 600 0
DWIDTH 12 0
BBX 9 16 1 0
BITMAP
8080
8080
4100
4100
2200
2200
1400
1400
0800
0800
0800
0800
0800
0800
0800
0800
ENDCHAR
STARTCHAR Z
ENCODING 90
SWIDTH 500 0
DWIDTH 10 0
BBX 8 16 1 0
BITMAP
FF
01
02
02
04
04
08
08
10
10
20
20
40
40
80
FF
ENDCHAR
STARTCHAR bracketleft
ENCODING 91
SWIDTH 500 0
DWIDTH 10 0
BBX 4 20 2 -2
BITMAP
F0
80
80
80
80
80
80
80
80
80
80
80
80
80
80
80
80
80
80
F0
ENDCHAR
STARTCHAR backslash
ENCODING 92
SWIDTH 500 0
DWIDTH 10 0
BBX 8 16 0 0
BITMAP
80
80
40
40
20
20
10
10
08
08
04
04
02
02
01
01
ENDCHAR
STARTCHAR bracketright
ENCODING 93
SWIDTH 500 0
DWIDTH 10 0
BBX 4 20 2 -2
BITMAP
F0
10
10
10
10
10
10
10
10
10
10
10
10
10
10
10
10
10
10
F0
ENDCHAR
STARTCHAR asciicircum
ENCODING 94
SWIDTH 500 0
DWIDTH 10 0
BBX 7 4 1 12
BITMAP
10
28
44
82
ENDCHAR
STARTCHAR underscore
ENCODING 95
SWIDTH 700 0
DWIDTH 14 0
BBX 14 1 0 0
BITMAP
FFFC
ENDCHAR
STARTCHAR grave
ENCODING 96
SWIDTH 400 0
DWIDTH 8 0
BBX 4 4 2 12
BITMAP
80
40
20
10
ENDCHAR
STARTCHAR a
ENCODING 97
SWIDTH 500 0
DWIDTH 10 0
BBX 8 12 1 0
BITMAP
3C
42
81
01
3F
41
81
81
81
81
43
3D
ENDCHAR
STARTCHAR b
ENCODING 98
SWIDTH 600 0
DWIDTH 12 0
BBX 8 16 2 0
BITMAP
80
80
80
80
BC
C2
81
81
81
81
81
81
81
81
C2
BC
ENDCHAR
STARTCHAR c
ENCODING 99
SWIDTH 500 0
DWIDTH 10 0
BBX 8 12 1 0
BITMAP
3C
42
81
81
80
80
80
80
81
81
42
3C
ENDCHAR
STARTCHAR d
ENCODING 100
SWIDTH 500 0
DWIDTH 10 0
BBX 8 16 1 0
BITMAP
01
01
01
01
3D
43
81
81
81
81
81
81
81
81
43
3D
ENDCHAR
STARTCHAR e
ENCODING 101
SWIDTH 500 0
DWIDTH 10 0
BBX 8 12 1 0
BITMAP
3C
42
81
81
81
FF
80
80
81
81
42
3C
ENDCHAR
STARTCHAR f
ENCODING 102
SWIDTH 400 0
DWIDTH 8 0
BBX 7 16 1 0
BITMAP
0E
10
20
20
F8
20
20
20
20
20
20
20
20
20
20
20
ENDCHAR
STARTCHAR g
ENCODING 103
SWIDTH 500 0
DWIDTH 10 0
BBX 8 16 1 -4
BITMAP
3D
43
81
81
81
81
81
81
81
81
43
3D
01
01
42
3C
ENDCHAR
STARTCHAR h
ENCODING 104
SWIDTH 600 0
DWIDTH 12 0
BBX 8 16 2 0
BITMAP
80
80
80
80
BC
C2
81
81
81
81
81
81
81
81
81
81
ENDCHAR
STARTCHAR i
ENCODING 105
SWIDTH 400 0
DWIDTH 8 0
BBX 3 16 2 0
BITMAP
20
20
00
00
E0
20
20
20
20
20
20
20
20
20
20
20
ENDCHAR
STARTCHAR j
ENCODING 106
SWIDTH 400 0
DWIDTH 8 0
BBX 4 20 0 -4
BITMAP
10
10
00
00
70
10
10
10
10
10
10
10
10
10
10
10
10
10
20
C0
ENDCHAR
STARTCHAR k
ENCODING 107
SWIDTH 600 0
DWIDTH 12 0
BBX 8 16 2 0
BITMAP
80
80
80
80
82
84
88
90
A0
C0
A0
90
88
84
82
81
ENDCHAR
STARTCHAR l
ENCODING 108
SWIDTH 400 0
DWIDTH 8 0
BBX 3 16 2 0
BITMAP
E0
20
20
20
20
20
20
20
20
20
20
20
20
20
20
20
ENDCHAR
STARTCHAR m
ENCODING 109
SWIDTH 900 0
DWIDTH 18 0
BBX 13 12 2 0
BITMAP
B8E0
C510
8208
8208
8208
8208
8208
8208
8208
8208
8208
8208
ENDCHAR
STARTCHAR n
ENCODING 110
SWIDTH 600 0
DWIDTH 12 0
BBX 8 12 2 0
BITMAP
9C
A2
C1
81
81
81
81
81
81
81
81
81
ENDCHAR
STARTCHAR o
ENCODING 111
SWIDTH 500 0
DWIDTH 10 0
BBX 8 12 1 0
BITMAP
3C
42
81
81
81
81
81
81
81
81
42
3C
ENDCHAR
STARTCHAR p
ENCODING 112
SWIDTH 600 0
DWIDTH 12 0
BBX 8 16 2 -4
BITMAP
BC
C2
81
81
81
81
81
81
81
81
C2
BC
80
80
80
80
ENDCHAR
STARTCHAR q
ENCODING 113
SWIDTH 500 0
DWIDTH 10 0
BBX 8 16 1 -4
BITMAP
3D
43
81
81
81
81
81
81
81
81
43
3D
01
01
01
01
ENDCHAR
STARTCHAR r
ENCODING 114
SWIDTH 600 0
DWIDTH 12 0
BBX 8 12 2 0
BITMAP
9C
A2
C1
80
80
80
80
80
80
80
80
80
ENDCHAR
STARTCHAR s
ENCODING 115
SWIDTH 500 0
DWIDTH 10 0
BBX 8 12 1 0
BITMAP
3C
42
81
80
40
3C
02
01
01
81
42
3C
ENDCHAR
STARTCHAR t
ENCODING 116
SWIDTH 400 0
DWIDTH 8 0
BBX 6 16 1 0
BITMAP
20
20
20
20
F8
20
20
20
20
20
20
20
20
20
10
0C
ENDCHAR
STARTCHAR u
ENCODING 117
SWIDTH 600 0
DWIDTH 12 0
BBX 8 12 2 0
BITMAP
81
81
81
81
81
81
81
81
81
83
45
39
ENDCHAR
STARTCHAR v
ENCODING 118
SWIDTH 600 0
DWIDTH 12 0
BBX 9 12 1 0
BITMAP
8080
8080
8080
4100
4100
2200
2200
1400
1400
0800
0800
0800
ENDCHAR
STARTCHAR w
ENCODING 119
SWIDTH 800 0
DWIDTH 16 0
BBX 13 12 1 0
BITMAP
8208
8208
8208
4510
4510
4510
28A0
28A0
28A0
1040
1040
1040
ENDCHAR
STARTCHAR x
ENCODING 120
SWIDTH 600 0
DWIDTH 12 0
BBX 9 12 1 0
BITMAP
8080
4100
2200
2200
1400
0800
1400
1400
2200
4100
4100
8080
ENDCHAR
STARTCHAR y
ENCODING 121
SWIDTH 600 0
DWIDTH 12 0
BBX 11 16 0 -4
BITMAP
8020
8020
4040
4040
2080
2080
1100
1100
0A00
0A00
0400
0400
0800
0800
1000
1000
ENDCHAR
STARTCHAR z
ENCODING 122
SWIDTH 500 0
DWIDTH 10 0
BBX 8 12 1 0
BITMAP
FF
01
01
02
04
08
10
20
40
80
80
FF
ENDCHAR
STARTCHAR braceleft
ENCODING 123
SWIDTH 500 0
DWIDTH 10 0
BBX 6 22 1 -4
BITMAP
0C
10
20
20
20
20
20
20
20
40
80
40
20
20
20
20
20
20
20
20
10
0C
ENDCHAR
STARTCHAR bar
ENCODING 124
SWIDTH 400 0
DWIDTH 8 0
BBX 1 22 3 -4
BITMAP
80
80
80
80
80
80
80
80
80
80
80
80
80
80
80
80
80
80
80
80
80
80
ENDCHAR
STARTCHAR braceright
ENCODING 125
SWIDTH 500 0
DWIDTH 10 0
BBX 6 22 2 -4
BITMAP
C0
20
10
10
10
10
10
10
10
08
04
08
10
10
10
10
10
10
10
10
20
C0
ENDCHAR
STARTCHAR asciitilde
ENCODING 126
SWIDTH 700 0
DWIDTH 14 0
BBX 11 3 1 13
BITMAP
3820
4440
8380
ENDCHAR
STARTCHAR char007f
ENCODING 127
SWIDTH 0 0
DWIDTH 0 0
BBX 0 0 0 -4
BITMAP
ENDCHAR
STARTCHAR Adieresis
ENCODING 128
SWIDTH 600 0
DWIDTH 12 0
BBX 11 19 0 0
BITMAP
1100
1100
0000
0400
0400
0A00
0A00
1100
1100
1100
2080
2080
3F80
4040
4040
4040
8020
8020
8020
ENDCHAR
STARTCHAR Aring
ENCODING 129
SWIDTH 600 0
DWIDTH 12 0
BBX 11 20 0 0
BITMAP
0E00
1100
1100
0E00
0400
0400
0A00
0A00
1100
1100
1100
2080
2080
3F80
4040
4040
4040
8020
8020
8020
ENDCHAR
STARTCHAR Ccedilla
ENCODING 130
SWIDTH 600 0
DWIDTH 12 0
BBX 10 20 1 -4
BITMAP
1E00
2100
4080
4040
8040
8000
8000
8000
8000
8000
8000
8040
4040
4080
2100
1E00
0400
0200
0200
0C00
ENDCHAR
STARTCHAR Eacute
ENCODING 131
SWIDTH 600 0
DWIDTH 12 0
BBX 8 20 2 0
BITMAP
04
08
10
00
FF
80
80
80
80
80
80
FC
80
80
80
80
80
80
80
FF
ENDCHAR
STARTCHAR Ntilde
ENCODING 132
SWIDTH 700 0
DWIDTH 14 0
BBX 11 20 2 0
BITMAP
3820
4440
8380
0000
8040
8040
C040
C040
A040
9040
9040
8840
8440
8440
8240
8140
8140
80C0
8040
8040
ENDCHAR
STARTCHAR Odieresis
ENCODING 133
SWIDTH 600 0
DWIDTH 12 0
BBX 10 20 1 0
BITMAP
2100
2100
0000
0000
1E00
2100
4080
4080
8040
8040
8040
8040
8040
8040
8040
8040
4080
4080
2100
1E00
ENDCHAR
STARTCHAR Udieresis
ENCODING 134
SWIDTH 700 0
DWIDTH 14 0
BBX 10 20 2 0
BITMAP
2100
2100
0000
0000
8040
8040
8040
8040
8040
8040
8040
8040
8040
8040
8040
8040
4080
4080
2100
1E00
ENDCHAR
STARTCHAR aacute
ENCODING 135
SWIDTH 500 0
DWIDTH 10 0
BBX 8 17 1 0
BITMAP
04
08
10
00
00
3C
42
81
01
3F
41
81
81
81
81
43
3D
ENDCHAR
STARTCHAR agrave
ENCODING 136
SWIDTH 500 0
DWIDTH 10 0
BBX 8 17 1 0
BITMAP
20
10
08
00
00
3C
42
81
01
3F
41
81
81
81
81
43
3D
ENDCHAR
STARTCHAR acircumflex
ENCODING 137
SWIDTH 500 0
DWIDTH 10 0
BBX 8 17 1 0
BITMAP
18
24
42
00
00
3C
42
81
01
3F
41
81
81
81
81
43
3D
ENDCHAR
STARTCHAR adieresis
ENCODING 138
SWIDTH 500 0
DWIDTH 10 0
BBX 8 16 1 0
BITMAP
42
42
00
00
3C
42
81
01
3F
41
81
81
81
81
43
3D
ENDCHAR
STARTCHAR atilde
ENCODING 139
SWIDTH 500 0
DWIDTH 10 0
BBX 8 16 1 0
BITMAP
71
8E
00
00
3C
42
81
01
3F
41
81
81
81
81
43
3D
ENDCHAR
STARTCHAR aring
ENCODING 140
SWIDTH 500 0
DWIDTH 10 0
BBX 8 18 1 0
BITMAP
1C
22
22
22
1C
00
3C
42
81
81
3F
41
81
81
81
81
41
3F
ENDCHAR
STARTCHAR ccedilla
ENCODING 141
SWIDTH 500 0
DWIDTH 10 0
BBX 8 16 1 -4
BITMAP
3C
42
81
81
80
80
80
80
81
81
42
3C
08
04
04
18
ENDCHAR
STARTCHAR eacute
ENCODING 142
SWIDTH 500 0
DWIDTH 10 0
BBX 8 17 1 0
BITMAP
04
08
10
00
00
3C
42
81
81
81
FF
80
80
81
81
42
3C
ENDCHAR
STARTCHAR egrave
ENCODING 143
SWIDTH 500 0
DWIDTH 10 0
BBX 8 17 1 0
BITMAP
20
10
08
00
00
3C
42
81
81
81
FF
80
80
81
81
42
3C
ENDCHAR
STARTCHAR ecircumflex
ENCODING 144
SWIDTH 500 0
DWIDTH 10 0
BBX 8 17 1 0
BITMAP
18
24
42
00
00
3C
42
81
81
81
FF
80
80
81
81
42
3C
ENDCHAR
STARTCHAR edieresis
ENCODING 145
SWIDTH 500 0
DWIDTH 10 0
BBX 8 16 1 0
BITMAP
42
42
00
00
3C
42
81
81
81
FF
80
80
81
81
42
3C
ENDCHAR
STARTCHAR iacute
ENCODING 146
SWIDTH 400 0
DWIDTH 8 0
BBX 4 17 2 0
BITMAP
10
20
40
00
00
E0
20
20
20
20
20
20
20
20
20
20
20
ENDCHAR
STARTCHAR igrave
ENCODING 147
SWIDTH 400 0
DWIDTH 8 0
BBX 3 17 2 0
BITMAP
80
40
20
00
00
E0
20
20
20
20
20
20
20
20
20
20
20
ENDCHAR
STARTCHAR icircumflex
ENCODING 148
SWIDTH 500 0
DWIDTH 10 0
BBX 6 17 2 0
BITMAP
30
48
84
00
00
70
10
10
10
10
10
10
10
10
10
10
10
ENDCHAR
STARTCHAR idieresis
ENCODING 149
SWIDTH 400 0
DWIDTH 8 0
BBX 5 16 1 0
BITMAP
88
88
00
00
E0
20
20
20
20
20
20
20
20
20
20
20
ENDCHAR
STARTCHAR ntilde
ENCODING 150
SWIDTH 600 0
DWIDTH 12 0
BBX 8 16 2 0
BITMAP
71
8E
00
00
9C
A2
C1
81
81
81
81
81
81
81
81
81
ENDCHAR
STARTCHAR oacute
ENCODING 151
SWIDTH 500 0
DWIDTH 10 0
BBX 8 17 1 0
BITMAP
04
08
10
00
00
3C
42
81
81
81
81
81
81
81
81
42
3C
ENDCHAR
STARTCHAR ograve
ENCODING 152
SWIDTH 500 0
DWIDTH 10 0
BBX 8 17 1 0
BITMAP
10
08
04
00
00
3C
42
81
81
81
81
81
81
81
81
42
3C
ENDCHAR
STARTCHAR ocircumflex
ENCODING 153
SWIDTH 500 0
DWIDTH 10 0
BBX 8 17 1 0
BITMAP
18
24
42
00
00
3C
42
81
81
81
81
81
81
81
81
42
3C
ENDCHAR
STARTCHAR odieresis
ENCODING 154
SWIDTH 500 0
DWIDTH 10 0
BBX 8 16 1 0
BITMAP
42
42
00
00
3C
42
81
81
81
81
81
81
81
81
42
3C
ENDCHAR
STARTCHAR otilde
ENCODING 155
SWIDTH 600 0
DWIDTH 12 0
BBX 8 16 2 0
BITMAP
71
8E
00
00
3C
42
81
81
81
81
81
81
81
81
42
3C
ENDCHAR
STARTCHAR uacute
ENCODING 156
SWIDTH 600 0
DWIDTH 12 0
BBX 8 17 2 0
BITMAP
04
08
10
00
00
81
81
81
81
81
81
81
81
81
83
45
39
ENDCHAR
STARTCHAR ugrave
ENCODING 157
SWIDTH 600 0
DWIDTH 12 0
BBX 8 17 2 0
BITMAP
10
08
04
00
00
81
81
81
81
81
81
81
81
81
83
45
39
ENDCHAR
STARTCHAR ucircumflex
ENCODING 158
SWIDTH 600 0
DWIDTH 12 0
BBX 8 17 2 0
BITMAP
18
24
42
00
00
81
81
81
81
81
81
81
81
81
83
45
39
ENDCHAR
STARTCHAR udieresis
ENCODING 159
SWIDTH 600 0
DWIDTH 12 0
BBX 8 16 2 0
BITMAP
42
42
00
00
81
81
81
81
81
81
81
81
81
83
45
39
ENDCHAR
STARTCHAR dagger
ENCODING 160
SWIDTH 500 0
DWIDTH 10 0
BBX 5 9 2 9
BITMAP
20
20
F8
20
20
20
20
20
20
ENDCHAR
STARTCHAR degree
ENCODING 161
SWIDTH 500 0
DWIDTH 10 0
BBX 5 5 2 10
BITMAP
70
88
88
88
70
ENDCHAR
STARTCHAR cent
ENCODING 162
SWIDTH 600 0
DWIDTH 12 0
BBX 9 16 1 -2
BITMAP
0800
0800
3E00
4900
8880
8880
8800
8800
8800
8800
8880
8880
4900
3E00
0800
0800
ENDCHAR
STARTCHAR sterling
ENCODING 163
SWIDTH 700 0
DWIDTH 14 0
BBX 12 16 1 0
BITMAP
0F00
1080
2040
2040
2000
2000
2000
F800
2000
2000
2000
2000
2010
2010
2020
FFC0
ENDCHAR
STARTCHAR section
ENCODING 164
SWIDTH 600 0
DWIDTH 12 0
BBX 10 16 1 0
BITMAP
3F00
4080
8040
8040
6000
9800
8600
6180
1840
0640
0180
0040
8040
8040
4080
3F00
ENDCHAR
STARTCHAR bullet
ENCODING 165
SWIDTH 600 0
DWIDTH 12 0
BBX 10 10 1 2
BITMAP
1E00
7F80
7F80
FFC0
FFC0
FFC0
FFC0
7F80
7F80
1E00
ENDCHAR
STARTCHAR paragraph
ENCODING 166
SWIDTH 600 0
DWIDTH 12 0
BBX 10 16 1 0
BITMAP
3FC0
4240
8240
8240
8240
8240
8240
4240
3FC0
0240
0240
0240
0240
0240
0240
0240
ENDCHAR
STARTCHAR germandbls
ENCODING 167
SWIDTH 700 0
DWIDTH 14 0
BBX 11 16 1 0
BITMAP
0F80
1040
2020
2020
2020
2040
2380
2040
2020
2020
2020
2020
2020
2020
2040
C780
ENDCHAR
STARTCHAR registered
ENCODING 168
SWIDTH 1000 0
DWIDTH 20 0
BBX 16 15 2 0
BITMAP
07E0
1818
2004
4002
47C2
8421
8421
87C1
8441
8421
4412
4002
2004
1818
07E0
ENDCHAR
STARTCHAR copyright
ENCODING 169
SWIDTH 1000 0
DWIDTH 20 0
BBX 16 15 2 0
BITMAP
07E0
1818
2004
4002
43C2
8421
8401
8401
8401
8421
43C2
4002
2004
1818
07E0
ENDCHAR
STARTCHAR trademark
ENCODING 170
SWIDTH 900 0
DWIDTH 18 0
BBX 15 8 1 8
BITMAP
FA02
2306
228A
2252
2222
2202
2202
2202
ENDCHAR
STARTCHAR acute
ENCODING 171
SWIDTH 300 0
DWIDTH 6 0
BBX 4 4 1 12
BITMAP
10
20
40
80
ENDCHAR
STARTCHAR dieresis
ENCODING 172
SWIDTH 400 0
DWIDTH 8 0
BBX 5 2 1 14
BITMAP
88
88
ENDCHAR
STARTCHAR notequal
ENCODING 173
SWIDTH 700 0
DWIDTH 14 0
BBX 11 9 1 3
BITMAP
0040
0080
FFE0
0200
0400
0800
FFE0
2000
4000
ENDCHAR
STARTCHAR AE
ENCODING 174
SWIDTH 900 0
DWIDTH 18 0
BBX 16 16 0 0
BITMAP
01FF
0180
0280
0280
0480
0480
0880
0FFC
1080
1080
2080
2080
4080
4080
8080
80FF
ENDCHAR
STARTCHAR Oslash
ENCODING 175
SWIDTH 800 0
DWIDTH 16 0
BBX 12 16 2 0
BITMAP
0F10
10A0
2040
2040
40A0
4120
4120
4220
4420
4820
4820
5020
2040
2040
5080
8F00
ENDCHAR
STARTCHAR infinity
ENCODING 176
SWIDTH 1100 0
DWIDTH 22 0
BBX 19 7 1 4
BITMAP
3C0780
431840
80A020
804020
80A020
431840
3C0780
ENDCHAR
STARTCHAR plusminus
ENCODING 177
SWIDTH 700 0
DWIDTH 14 0
BBX 9 11 2 0
BITMAP
0800
0800
0800
0800
FF80
0800
0800
0800
0800
0000
FF80
ENDCHAR
STARTCHAR lessequal
ENCODING 178
SWIDTH 500 0
DWIDTH 10 0
BBX 8 13 1 0
BITMAP
02
04
08
10
20
40
20
10
08
04
02
00
FF
ENDCHAR
STARTCHAR greaterequal
ENCODING 179
SWIDTH 700 0
DWIDTH 14 0
BBX 8 13 3 0
BITMAP
40
20
10
08
04
02
04
08
10
20
40
00
FF
ENDCHAR
STARTCHAR yen
ENCODING 180
SWIDTH 700 0
DWIDTH 14 0
BBX 11 16 1 0
BITMAP
8020
4040
2080
1100
7BC0
0400
0400
0400
7FC0
0400
0400
0400
0400
0400
0400
0400
ENDCHAR
STARTCHAR mu
ENCODING 181
SWIDTH 700 0
DWIDTH 14 0
BBX 11 15 1 -3
BITMAP
4080
4080
4080
4080
4080
4080
4080
4080
4080
4080
6140
5E20
4000
4000
8000
ENDCHAR
STARTCHAR partialdiff
ENCODING 182
SWIDTH 500 0
DWIDTH 10 0
BBX 8 14 1 0
BITMAP
E0
18
04
04
02
0E
31
41
81
81
82
82
44
38
ENDCHAR
STARTCHAR summation
ENCODING 183
SWIDTH 700 0
DWIDTH 14 0
BBX 11 16 1 0
BITMAP
FFE0
8020
4000
2000
1000
0800
0400
0200
0200
0400
0800
1000
2000
4000
8020
FFE0
ENDCHAR
STARTCHAR product
ENCODING 184
SWIDTH 700 0
DWIDTH 14 0
BBX 11 16 1 0
BITMAP
FFE0
2080
2080
2080
2080
2080
2080
2080
2080
2080
2080
2080
2080
2080
2080
2080
ENDCHAR
STARTCHAR pi
ENCODING 185
SWIDTH 800 0
DWIDTH 16 0
BBX 13 13 1 0
BITMAP
0008
7FF0
9040
1040
1040
1040
1040
1040
1040
1040
1040
1040
2080
ENDCHAR
STARTCHAR integral
ENCODING 186
SWIDTH 500 0
DWIDTH 10 0
BBX 7 24 1 -4
BITMAP
06
08
10
10
10
10
10
10
10
10
10
10
10
10
10
10
10
10
10
10
10
10
20
C0
ENDCHAR
STARTCHAR ordfeminine
ENCODING 187
SWIDTH 500 0
DWIDTH 10 0
BBX 8 11 1 5
BITMAP
3F
41
81
81
81
83
45
39
00
00
FF
ENDCHAR
STARTCHAR ordmasculine
ENCODING 188
SWIDTH 500 0
DWIDTH 10 0
BBX 8 11 1 5
BITMAP
3C
42
81
81
81
81
42
3C
00
00
FF
ENDCHAR
STARTCHAR Omega
ENCODING 189
SWIDTH 800 0
DWIDTH 16 0
BBX 12 16 2 0
BITMAP
0F00
30C0
4020
4020
8010
8010
8010
8010
8010
4020
4020
2040
2040
1080
1080
70E0
ENDCHAR
STARTCHAR ae
ENCODING 190
SWIDTH 800 0
DWIDTH 16 0
BBX 14 12 1 0
BITMAP
3C70
4288
8104
8104
3FFC
4100
8100
8100
8104
8104
4288
3C70
ENDCHAR
STARTCHAR oslash
ENCODING 191
SWIDTH 700 0
DWIDTH 14 0
BBX 12 12 1 0
BITMAP
0F10
10A0
2040
20C0
2140
2240
2440
2840
3040
2040
5080
8F00
ENDCHAR
STARTCHAR questiondown
ENCODING 192
SWIDTH 700 0
DWIDTH 14 0
BBX 9 16 2 0
BITMAP
0800
0800
0000
0000
0800
0800
0800
1000
2000
4000
8000
8000
8080
8080
4100
3E00
ENDCHAR
STARTCHAR exclamdown
ENCODING 193
SWIDTH 400 0
DWIDTH 8 0
BBX 1 16 4 0
BITMAP
80
80
00
00
80
80
80
80
80
80
80
80
80
80
80
80
ENDCHAR
STARTCHAR logicalnot
ENCODING 194
SWIDTH 700 0
DWIDTH 14 0
BBX 10 5 2 3
BITMAP
FFC0
0040
0040
0040
0040
ENDCHAR
STARTCHAR radical
ENCODING 195
SWIDTH 900 0
DWIDTH 18 0
BBX 16 16 1 0
BITMAP
000F
0008
0010
0010
0020
0020
0040
0040
2080
6080
9100
1100
0A00
0A00
0400
0400
ENDCHAR
STARTCHAR florin
ENCODING 196
SWIDTH 500 0
DWIDTH 10 0
BBX 7 24 1 -4
BITMAP
06
08
10
10
10
10
10
10
10
10
7C
10
10
10
10
10
10
10
10
10
10
10
20
C0
ENDCHAR
STARTCHAR approxequal
ENCODING 197
SWIDTH 700 0
DWIDTH 14 0
BBX 12 7 1 4
BITMAP
3810
4620
81C0
0000
3810
4620
81C0
ENDCHAR
STARTCHAR Delta
ENCODING 198
SWIDTH 700 0
DWIDTH 14 0
BBX 9 10 2 0
BITMAP
0800
0800
1400
1400
2200
2200
4100
4100
8080
FF80
ENDCHAR
STARTCHAR guillemotleft
ENCODING 199
SWIDTH 800 0
DWIDTH 16 0
BBX 11 11 2 0
BITMAP
0420
0840
1080
2100
4200
8400
4200
2100
1080
0840
0420
ENDCHAR
STARTCHAR guillemotright
ENCODING 200
SWIDTH 700 0
DWIDTH 14 0
BBX 11 11 2 0
BITMAP
8400
4200
2100
1080
0840
0420
0840
1080
2100
4200
8400
ENDCHAR
STARTCHAR ellipsis
ENCODING 201
SWIDTH 900 0
DWIDTH 18 0
BBX 11 2 2 0
BITMAP
8420
8420
ENDCHAR
STARTCHAR nbspace
ENCODING 202
SWIDTH 700 0
DWIDTH 14 0
BBX 0 0 14 -4
BITMAP
ENDCHAR
STARTCHAR Agrave
ENCODING 203
SWIDTH 600 0
DWIDTH 12 0
BBX 11 20 0 0
BITMAP
0800
0400
0200
0000
0400
0400
0A00
0A00
1100
1100
1100
2080
2080
3F80
4040
4040
4040
8020
8020
8020
ENDCHAR
STARTCHAR Atilde
ENCODING 204
SWIDTH 700 0
DWIDTH 14 0
BBX 11 20 1 0
BITMAP
3820
4440
8380
0000
0400
0400
0A00
0A00
1100
1100
1100
2080
2080
3F80
4040
4040
4040
8020
8020
8020
ENDCHAR
STARTCHAR Otilde
ENCODING 205
SWIDTH 700 0
DWIDTH 14 0
BBX 11 20 1 0
BITMAP
3820
4440
8380
0000
0F00
1080
2040
2040
4020
4020
4020
4020
4020
4020
4020
4020
2040
2040
1080
0F00
ENDCHAR
STARTCHAR OE
ENCODING 206
SWIDTH 900 0
DWIDTH 18 0
BBX 16 16 1 0
BITMAP
1E7F
2140
40C0
40C0
8040
8040
8040
807C
8040
8040
8040
8040
40C0
40C0
2140
1E7F
ENDCHAR
STARTCHAR oe
ENCODING 207
SWIDTH 800 0
DWIDTH 16 0
BBX 14 12 0 0
BITMAP
3C70
4288
8104
8104
8104
81FC
8100
8100
8104
8304
4488
3870
ENDCHAR
STARTCHAR endash
ENCODING 208
SWIDTH 550 0
DWIDTH 11 0
BBX 9 1 1 7
BITMAP
FF80
ENDCHAR
STARTCHAR emdash
ENCODING 209
SWIDTH 900 0
DWIDTH 18 0
BBX 16 1 1 7
BITMAP
FFFF
ENDCHAR
STARTCHAR quotedblleft
ENCODING 210
SWIDTH 700 0
DWIDTH 14 0
BBX 7 5 2 11
BITMAP
42
84
84
84
C6
ENDCHAR
STARTCHAR quotedblright
ENCODING 211
SWIDTH 700 0
DWIDTH 14 0
BBX 7 5 4 11
BITMAP
C6
42
42
42
84
ENDCHAR
STARTCHAR quoteleft
ENCODING 212
SWIDTH 400 0
DWIDTH 8 0
BBX 2 5 3 11
BITMAP
40
80
80
80
C0
ENDCHAR
STARTCHAR quoteright
ENCODING 213
SWIDTH 400 0
DWIDTH 8 0
BBX 2 5 4 11
BITMAP
C0
40
40
40
80
ENDCHAR
STARTCHAR divide
ENCODING 214
SWIDTH 800 0
DWIDTH 16 0
BBX 9 9 3 3
BITMAP
0800
0800
0000
0000
FF80
0000
0000
0800
0800
ENDCHAR
STARTCHAR lozenge
ENCODING 215
SWIDTH 900 0
DWIDTH 18 0
BBX 13 13 2 0
BITMAP
0200
0500
0880
1040
2020
4010
8008
4010
2020
1040
0880
0500
0200
ENDCHAR
STARTCHAR ydieresis
ENCODING 216
SWIDTH 600 0
DWIDTH 12 0
BBX 11 20 0 -4
BITMAP
2080
2080
0000
0000
8020
8020
4040
4040
2080
2080
1100
1100
0A00
0A00
0400
0400
0800
0800
1000
1000
ENDCHAR
STARTCHAR Ydieresis
ENCODING 217
SWIDTH 1200 0
DWIDTH 24 0
BBX 20 24 2 -4
BITMAP
7FFFE0
800010
800010
8FFF10
955590
9AAA90
955590
9AAA90
955590
9AAA90
955590
9AAA90
8FFF10
800010
800010
800010
803F10
800010
800010
800010
7FFFE0
400020
400020
7FFFE0
ENDCHAR
ENDFONT
